<?xml version="1.0" standalone="no"?>
<!DOCTYPE svg PUBLIC "-//W3C//DTD SVG 20010904//EN"
 "http://www.w3.org/TR/2001/REC-SVG-20010904/DTD/svg10.dtd">
<svg version="1.0" xmlns="http://www.w3.org/2000/svg"
 width="500.000000pt" height="500.000000pt" viewBox="0 0 500.000000 500.000000"
 preserveAspectRatio="xMidYMid meet">
<metadata>
Created by potrace 1.14, written by Peter Selinger 2001-2017
</metadata>
<g transform="translate(0.000000,500.000000) scale(0.100000,-0.100000)"
fill="#000000" stroke="none">
<path d="M2370 4620 c-8 -4 -34 -11 -57 -15 -24 -4 -43 -10 -43 -15 0 -4 -22
-10 -50 -14 -27 -4 -52 -11 -55 -16 -3 -5 -14 -7 -25 -5 -11 2 -20 -1 -20 -6
0 -6 -8 -9 -17 -8 -20 2 -73 -10 -88 -21 -5 -4 -40 -13 -77 -20 -38 -7 -68
-16 -68 -20 0 -4 -25 -11 -55 -15 -30 -3 -55 -10 -55 -14 0 -4 -8 -7 -17 -8
-32 -3 -117 -24 -140 -35 -11 -6 -26 -7 -32 -4 -6 4 -11 2 -11 -3 0 -6 -11
-11 -24 -11 -14 0 -27 -4 -31 -10 -3 -5 -12 -7 -19 -4 -8 3 -17 1 -20 -5 -4
-5 -31 -13 -61 -16 -30 -4 -55 -11 -55 -15 0 -5 -19 -11 -42 -15 -24 -4 -48
-11 -54 -16 -6 -5 -20 -7 -32 -4 -12 2 -22 0 -22 -5 0 -5 -22 -12 -50 -16 -27
-4 -50 -11 -50 -16 0 -6 -11 -8 -25 -6 -14 3 -25 2 -25 -2 0 -9 -58 -23 -82
-21 -10 1 -18 -2 -18 -7 0 -5 -22 -12 -50 -16 -27 -4 -52 -11 -55 -16 -3 -5
-14 -7 -25 -5 -11 2 -20 0 -20 -5 0 -5 -22 -12 -50 -16 -27 -4 -50 -10 -50
-14 0 -4 -22 -10 -50 -14 -27 -4 -52 -11 -55 -16 -3 -5 -14 -7 -25 -5 -11 2
-20 0 -20 -4 0 -5 -22 -11 -48 -15 -38 -5 -51 -11 -58 -29 -13 -31 -1 -835 13
-867 3 -8 7 -44 7 -80 1 -36 5 -70 9 -76 4 -7 6 -23 6 -35 -2 -45 14 -189 21
-189 4 0 11 -34 15 -75 4 -41 10 -75 14 -75 4 0 5 -16 3 -35 -2 -19 0 -35 6
-35 5 0 12 -27 16 -60 4 -33 11 -60 16 -60 5 0 7 -13 5 -30 -2 -16 0 -30 5
-30 8 0 20 -49 21 -82 0 -10 5 -18 11 -18 6 0 8 -11 6 -25 -3 -14 -1 -25 3
-25 5 0 9 -8 9 -18 0 -10 3 -22 7 -26 4 -3 8 -12 10 -19 16 -72 28 -107 35
-107 4 0 8 -6 8 -14 0 -8 5 -27 12 -43 6 -15 12 -30 13 -33 1 -3 7 -18 13 -33
7 -16 12 -35 12 -43 0 -8 4 -14 9 -14 5 0 12 -12 16 -28 3 -15 13 -34 21 -43
8 -9 14 -20 13 -25 -2 -15 13 -54 22 -54 4 0 20 5 36 12 15 6 30 12 33 12 13
2 126 62 131 69 3 5 10 9 15 9 15 1 59 22 65 31 3 5 9 9 12 9 19 0 47 12 47
19 0 5 3 8 8 8 11 -2 72 25 72 32 0 3 20 12 45 19 24 7 42 16 39 21 -3 5 2 9
10 9 8 0 22 8 32 18 10 9 18 15 18 14 1 -5 57 20 71 31 29 22 87 57 95 57 6 0
10 4 10 8 0 8 34 28 53 30 4 1 13 6 20 12 48 41 62 50 74 50 7 0 16 7 19 15 4
8 12 15 19 15 7 0 18 7 25 15 7 8 16 13 20 10 4 -3 10 2 14 10 3 8 12 15 21
15 8 0 15 5 15 10 0 6 11 15 25 20 14 5 25 14 25 19 0 5 8 12 18 15 9 3 29 17
45 31 15 14 27 23 27 19 0 -4 10 4 23 17 23 24 31 30 95 70 17 12 32 25 32 30
0 5 6 9 13 9 6 0 23 12 36 25 13 14 27 25 33 25 5 0 7 4 4 9 -3 5 5 11 17 15
13 3 29 17 37 30 7 14 17 23 22 20 4 -3 8 0 8 5 0 6 5 11 11 11 11 0 37 23
158 139 41 39 76 69 78 67 5 -5 363 353 363 364 0 4 14 20 31 34 17 14 28 26
24 26 -3 0 10 14 30 31 19 17 35 35 35 41 0 5 23 31 50 58 28 27 50 52 50 57
0 4 16 24 35 43 19 19 35 37 35 41 0 4 15 23 33 43 17 19 40 45 49 58 58 76
104 134 113 140 5 4 6 8 1 8 -7 0 28 47 69 91 8 9 15 21 15 27 0 6 6 15 13 19
6 4 19 21 27 38 8 16 25 39 37 51 13 12 20 23 18 26 -3 3 1 11 10 18 8 7 15
18 15 25 0 7 7 15 15 19 8 3 15 12 15 21 0 8 5 15 12 15 6 0 8 3 5 7 -4 3 -2
12 4 20 18 21 -5 40 -56 48 -25 3 -45 10 -45 14 0 5 -10 8 -22 8 -13 0 -30 2
-38 5 -30 12 -116 36 -150 43 -19 4 -39 10 -45 14 -5 3 -17 6 -25 6 -8 0 -19
3 -25 6 -8 5 -63 20 -85 24 -3 0 -10 3 -15 7 -6 3 -28 9 -50 13 -22 4 -44 11
-50 15 -5 4 -18 6 -27 5 -10 -2 -20 1 -23 5 -3 5 -26 12 -50 16 -25 3 -48 10
-50 15 -3 4 -39 13 -80 20 -41 7 -75 16 -75 20 0 4 -20 11 -45 15 -25 3 -48
10 -50 15 -3 4 -14 6 -25 4 -11 -2 -20 0 -20 6 0 5 -11 9 -25 9 -14 0 -25 4
-25 10 0 5 -7 7 -15 4 -8 -4 -21 -2 -28 4 -6 6 -34 13 -62 17 -27 4 -52 11
-55 16 -3 4 -12 4 -20 -1z"/>
<path d="M4253 4076 c-13 -13 -23 -28 -23 -34 0 -5 -13 -21 -29 -34 -16 -14
-34 -35 -41 -48 -7 -13 -25 -34 -41 -48 -16 -13 -29 -28 -29 -33 0 -10 -21
-34 -139 -161 -35 -37 -61 -68 -58 -68 4 0 -40 -47 -98 -105 -58 -57 -105
-108 -105 -112 -1 -4 -41 -46 -90 -93 -49 -47 -137 -131 -195 -187 -58 -56
-105 -99 -105 -96 0 3 -27 -21 -60 -53 -33 -32 -62 -57 -64 -54 -1 3 -24 -16
-49 -42 -25 -27 -50 -48 -55 -48 -5 0 -21 -15 -37 -34 -16 -19 -39 -37 -52
-41 -13 -3 -22 -9 -19 -14 3 -4 -7 -14 -21 -22 -27 -14 -37 -22 -104 -78 -20
-17 -42 -31 -47 -31 -6 0 -16 -9 -22 -20 -6 -11 -16 -20 -22 -20 -6 0 -21 -11
-34 -25 -13 -14 -25 -24 -27 -23 -4 3 -57 -36 -83 -60 -7 -7 -17 -13 -21 -14
-14 -2 -58 -32 -66 -45 -4 -7 -15 -13 -22 -13 -8 0 -15 -3 -15 -7 0 -5 -23
-21 -50 -38 -27 -16 -50 -33 -50 -37 0 -5 -7 -8 -15 -8 -9 0 -18 -7 -21 -15
-4 -8 -10 -13 -14 -10 -5 3 -11 1 -15 -4 -3 -5 -18 -16 -33 -24 -45 -23 -77
-42 -83 -50 -7 -10 -69 -46 -91 -53 -10 -4 -18 -10 -18 -14 0 -5 -13 -11 -29
-15 -16 -3 -32 -12 -34 -20 -3 -7 -19 -16 -36 -20 -17 -4 -29 -11 -25 -16 3
-5 -4 -9 -15 -9 -12 0 -30 -9 -41 -20 -11 -11 -23 -20 -26 -20 -10 0 -119 -53
-124 -61 -3 -4 -17 -10 -32 -14 -15 -4 -32 -13 -39 -21 -6 -8 -18 -14 -26 -14
-16 0 -94 -40 -104 -53 -3 -5 -8 -8 -10 -7 -8 3 -44 -11 -81 -30 -20 -11 -46
-20 -57 -20 -12 0 -21 -5 -21 -11 0 -5 -4 -7 -10 -4 -5 3 -10 1 -10 -4 0 -6
-11 -11 -24 -11 -14 0 -31 -6 -38 -14 -8 -7 -41 -20 -74 -27 -32 -7 -61 -16
-64 -20 -3 -3 -27 -12 -55 -18 -70 -16 -69 -16 -80 -23 -5 -3 -31 -9 -58 -13
-26 -4 -50 -11 -52 -15 -3 -5 -31 -12 -63 -16 -31 -3 -61 -10 -67 -14 -5 -3
-26 -6 -45 -5 -19 1 -40 -2 -47 -7 -14 -11 -294 -12 -302 -1 -3 4 -15 8 -26 8
-21 0 -26 2 -65 38 -29 27 -34 43 -20 60 45 56 73 87 77 83 3 -3 15 5 27 17
11 13 34 28 49 35 16 7 25 17 21 23 -4 7 -9 8 -13 1 -3 -5 -15 -10 -26 -9 -24
0 -85 -24 -85 -34 0 -4 -14 -10 -30 -14 -17 -4 -30 -11 -30 -17 0 -6 -3 -9 -6
-5 -8 7 -84 -65 -84 -80 0 -6 -6 -13 -12 -15 -9 -3 -13 -25 -13 -64 0 -57 2
-62 42 -102 23 -24 55 -45 72 -48 17 -4 31 -10 31 -14 0 -5 21 -13 48 -19 26
-6 56 -14 67 -17 37 -11 140 -25 220 -30 169 -10 255 -12 255 -4 0 5 42 9 92
9 121 1 248 12 248 21 0 3 25 6 55 5 30 -1 55 2 55 7 0 5 17 9 38 9 60 -1 132
10 132 20 0 5 10 8 22 8 35 -1 172 23 183 32 6 4 34 11 63 15 28 3 52 10 52
15 0 4 11 6 24 3 14 -2 27 0 31 5 3 5 30 13 60 16 30 4 55 11 55 16 0 5 3 8 8
7 12 -3 76 14 89 24 7 5 17 7 22 4 5 -4 12 -2 15 3 3 5 26 12 51 15 25 4 45
11 45 15 0 4 21 13 48 20 26 6 52 13 57 14 6 1 15 5 20 9 6 3 27 9 48 13 20 4
37 11 37 16 0 5 3 8 8 7 11 -2 93 21 127 37 27 12 62 26 75 30 28 7 87 29 96
36 6 5 14 6 17 2 4 -3 7 -1 7 5 0 7 9 12 19 12 11 0 23 5 26 10 4 6 11 8 16 5
5 -4 9 -1 9 4 0 6 7 11 15 11 8 0 15 4 15 9 0 5 9 7 20 4 11 -3 20 0 20 6 0 6
3 11 8 10 15 -2 52 14 52 23 0 5 4 7 9 4 5 -3 22 1 37 9 16 8 35 15 42 15 7 0
11 4 8 9 -3 5 17 14 44 21 28 7 50 16 50 20 0 5 14 11 30 15 17 4 30 11 30 16
0 5 3 8 8 8 12 -2 72 25 72 32 0 4 14 10 30 14 17 4 30 11 30 16 0 6 5 7 10 4
6 -3 10 -2 10 4 0 5 14 12 30 16 17 4 30 10 30 15 0 5 14 11 30 15 17 4 30 11
30 16 0 6 5 7 10 4 6 -3 10 -2 10 4 0 5 14 12 30 16 17 4 30 10 30 15 0 4 11
11 24 14 14 3 31 12 38 19 14 13 57 34 72 35 5 0 12 4 15 9 8 11 40 31 80 49
19 9 49 27 66 40 18 13 37 24 42 24 6 0 16 7 23 15 7 8 16 12 21 9 5 -3 9 0 9
5 0 6 7 11 15 11 9 0 18 6 21 14 3 8 19 18 35 21 16 4 32 12 36 18 7 11 27 24
78 51 58 31 66 43 72 100 3 31 9 56 14 56 4 0 10 38 14 85 4 47 10 85 14 85 3
0 5 24 5 52 -1 29 2 55 7 58 5 3 11 75 15 160 4 85 10 160 14 165 3 6 6 181 6
390 l-1 380 -25 2 c-15 1 -34 -8 -47 -21z"/>
<path d="M4540 2660 c-24 -14 -103 -47 -129 -55 -22 -7 -22 -8 -7 -17 9 -5 25
-6 34 -2 9 4 31 9 47 11 17 2 47 6 68 9 20 4 53 3 72 0 28 -6 35 -11 35 -31 0
-13 -7 -30 -15 -39 -8 -8 -15 -19 -15 -25 0 -5 -6 -14 -14 -18 -7 -4 -18 -18
-25 -30 -15 -29 -119 -132 -164 -163 -20 -13 -33 -28 -31 -32 3 -4 -2 -8 -10
-8 -9 0 -25 -9 -36 -20 -11 -11 -24 -20 -29 -20 -5 0 -14 -7 -21 -15 -7 -9
-15 -13 -17 -11 -3 3 -15 -6 -28 -20 -12 -13 -27 -24 -33 -24 -6 0 -16 -8 -21
-17 -6 -10 -11 -15 -11 -10 0 6 -46 -19 -60 -33 -6 -6 -45 -28 -82 -48 -16 -7
-28 -17 -28 -21 0 -4 -18 -14 -40 -21 -22 -7 -40 -17 -40 -21 0 -4 -16 -13
-35 -20 -19 -7 -35 -16 -35 -20 0 -4 -13 -10 -30 -14 -16 -4 -30 -10 -30 -15
0 -8 -59 -34 -72 -31 -5 0 -8 -3 -8 -8 0 -5 -13 -12 -30 -16 -16 -4 -30 -11
-30 -16 0 -5 -6 -9 -14 -9 -8 0 -21 -7 -30 -15 -8 -9 -19 -16 -23 -16 -4 0
-27 -9 -49 -19 -23 -10 -58 -24 -78 -31 -20 -7 -36 -17 -36 -22 0 -5 -9 -7
-20 -4 -11 3 -20 2 -20 -3 0 -8 -38 -23 -52 -21 -5 1 -8 -3 -8 -8 0 -5 -16
-12 -35 -15 -19 -4 -35 -11 -35 -15 0 -5 -17 -12 -37 -16 -21 -4 -44 -11 -50
-17 -7 -6 -13 -7 -13 -2 0 5 -4 4 -8 -1 -4 -6 -43 -21 -87 -35 -44 -13 -86
-28 -92 -33 -7 -5 -13 -6 -13 -2 0 4 -6 3 -12 -3 -7 -6 -30 -13 -51 -17 -20
-4 -39 -11 -42 -15 -3 -4 -34 -14 -70 -21 -36 -7 -65 -16 -65 -20 0 -5 -22
-11 -50 -15 -27 -4 -50 -10 -50 -14 0 -4 -10 -7 -22 -7 -13 0 -30 -2 -38 -6
-26 -9 -75 -20 -84 -18 -4 1 -14 -3 -22 -10 -8 -6 -20 -9 -29 -6 -8 4 -17 2
-20 -3 -4 -6 -19 -10 -36 -10 -16 0 -29 -4 -29 -9 0 -5 -10 -9 -22 -9 -45 -2
-163 -26 -169 -35 -4 -5 -19 -7 -33 -5 -15 3 -29 1 -32 -3 -3 -5 -23 -9 -44
-9 -21 0 -41 -4 -44 -8 -3 -5 -23 -8 -46 -7 -22 1 -40 -1 -40 -6 0 -4 -39 -10
-87 -14 -49 -4 -93 -12 -100 -17 -6 -5 -28 -9 -50 -9 -21 0 -99 -4 -173 -9
-74 -6 -179 -10 -232 -11 -54 0 -100 -5 -104 -10 -3 -6 8 -23 24 -39 17 -15
34 -36 39 -44 14 -25 304 -316 315 -316 5 0 26 -18 47 -40 21 -22 42 -40 47
-40 5 0 22 -14 37 -31 15 -17 27 -28 27 -23 0 4 10 -2 22 -13 28 -26 158 -113
168 -113 4 0 10 -7 14 -15 3 -8 10 -15 15 -15 10 0 72 -38 98 -59 6 -6 23 -13
37 -17 14 -3 26 -10 26 -15 0 -10 49 -34 63 -31 4 1 7 -2 7 -7 0 -5 13 -12 30
-16 17 -4 30 -11 30 -16 0 -6 5 -7 10 -4 6 3 10 2 10 -4 0 -5 13 -12 30 -16
16 -4 30 -10 30 -15 0 -4 15 -11 34 -14 19 -4 37 -12 40 -19 5 -9 7 -9 12 1 3
6 17 12 30 12 13 0 24 5 24 12 0 6 3 8 6 5 4 -4 19 0 33 7 33 18 64 30 74 28
4 -1 7 2 7 7 0 5 13 12 29 16 16 3 32 13 35 21 3 8 12 14 21 14 8 0 15 5 15
10 0 6 3 9 8 9 13 -3 72 23 72 31 0 4 15 13 33 21 17 7 36 19 40 26 4 7 16 13
25 13 10 0 25 8 34 18 26 27 46 42 57 42 6 0 14 8 20 17 5 10 12 15 16 11 3
-3 21 7 38 23 56 51 67 59 75 59 5 0 19 11 32 25 13 14 27 25 32 25 5 0 30 22
56 50 26 28 52 50 56 50 11 0 226 215 226 226 0 5 19 25 41 46 26 24 39 43 36
53 -5 13 -10 13 -34 1 -45 -23 -138 -58 -150 -58 -4 0 -12 -3 -18 -8 -5 -4
-27 -11 -47 -15 -21 -4 -38 -12 -38 -17 0 -6 -9 -8 -20 -5 -11 3 -20 1 -20 -4
0 -5 -9 -9 -19 -9 -11 0 -22 -4 -25 -9 -3 -4 -17 -7 -31 -6 -14 2 -25 0 -25
-5 0 -5 -18 -11 -40 -15 -22 -4 -40 -10 -40 -14 0 -4 -37 -13 -82 -21 -46 -7
-85 -16 -88 -20 -3 -4 -18 -10 -35 -12 -16 -3 -24 -3 -17 -1 6 3 12 9 12 14 0
5 6 9 14 9 8 0 27 5 43 12 15 6 31 11 36 10 4 -1 7 2 7 7 0 5 16 12 35 15 19
4 35 11 35 17 0 6 5 7 10 4 6 -3 10 -1 10 4 0 6 11 11 24 11 14 0 31 7 39 15
8 7 26 17 41 21 14 3 26 10 26 15 0 5 3 8 8 7 9 -4 125 54 133 65 3 5 8 8 10
8 10 -3 69 24 69 31 0 4 6 8 12 8 16 0 122 53 126 63 2 4 7 5 12 2 4 -3 13 2
20 10 7 8 19 15 26 15 8 0 14 4 14 9 0 5 11 12 24 15 14 3 31 12 38 19 7 6 35
23 61 37 26 13 47 28 47 33 0 4 5 5 10 2 6 -3 10 -3 10 2 0 4 24 21 53 37 28
17 58 36 65 43 7 7 20 13 28 13 8 0 14 5 14 10 0 6 11 15 25 20 14 5 25 14 25
19 0 5 14 14 30 21 17 7 30 16 30 21 0 5 7 9 15 9 8 0 19 9 25 20 6 11 17 20
25 20 8 0 18 6 22 13 4 7 19 20 33 29 14 9 35 25 47 37 12 12 25 21 29 21 4 0
24 16 43 34 20 19 68 64 106 99 39 34 71 67 72 73 1 5 22 30 47 55 26 26 46
52 46 58 0 6 9 16 20 23 11 7 20 19 20 26 0 8 11 23 25 34 14 11 23 24 20 29
-4 5 -1 9 4 9 6 0 11 7 11 15 0 9 7 18 15 21 8 4 15 10 15 14 0 5 5 21 12 37
6 15 11 31 10 36 -1 4 2 7 7 7 5 0 12 18 16 40 4 22 10 40 15 40 10 0 9 159
-1 166 -5 3 -9 14 -9 26 0 11 -8 22 -20 25 -11 3 -20 9 -20 14 0 12 -140 11
-160 -1z"/>
</g>
</svg>
